<svg xmlns="http://www.w3.org/2000/svg" viewBox="0 0 980 336" width="100%" role="img" aria-label="Hainmueller2014: rank correlation by era"><style>text{font-family:var(--hb-mono,'IBM Plex Mono',ui-monospace,Menlo,monospace);font-size:10px;letter-spacing:.04em;fill:var(--hb-grey,#6b6862)}.ink{fill:var(--hb-color,#141413)}.tick{stroke:var(--hb-hair,#e6e3dc)}.zero{stroke:var(--hb-grey3,#b8b5ad)}.bar{stroke:var(--hb-grey3,#b8b5ad);stroke-width:1}.bar.h{stroke:var(--hb-color,#141413);stroke-width:1.2}.dot{fill:var(--hb-color,#141413)}.dot.s{fill:var(--hb-bg,#fcfcfb);stroke:var(--hb-color,#141413);stroke-width:1.5}.dot.fail{fill:var(--hb-red,#c8102e)}.gap{stroke:var(--hb-red,#c8102e);stroke-width:2}.ident{stroke:var(--hb-grey3,#b8b5ad);stroke-dasharray:3 3}.fit{stroke:var(--hb-color,#141413);stroke-width:1}.band{fill:var(--hb-band,#f0eee8)}.blob{fill:var(--hb-heat,#2a78d6);fill-opacity:.16}.blob.fail{fill:var(--hb-red,#c8102e);fill-opacity:.18}.red{fill:var(--hb-red,#c8102e)}.lab{font-family:var(--hb-body,'Inter Tight',Inter,Arial,sans-serif);font-size:11px;letter-spacing:-0.01em;fill:var(--hb-color,#141413)}.cap{fill:var(--hb-color,#141413);letter-spacing:.14em;text-transform:uppercase}</style><line class="tick" x1="400.0" x2="400.0" y1="14" y2="306"/><text x="400.0" y="10" text-anchor="middle">-.2</text><line class="tick" x1="461.7" x2="461.7" y1="14" y2="306"/><text x="461.7" y="10" text-anchor="middle">0.0</text><line class="tick" x1="523.3" x2="523.3" y1="14" y2="306"/><text x="523.3" y="10" text-anchor="middle">.2</text><line class="tick" x1="585.0" x2="585.0" y1="14" y2="306"/><text x="585.0" y="10" text-anchor="middle">.4</text><line class="tick" x1="646.7" x2="646.7" y1="14" y2="306"/><text x="646.7" y="10" text-anchor="middle">.6</text><line class="tick" x1="708.3" x2="708.3" y1="14" y2="306"/><text x="708.3" y="10" text-anchor="middle">.8</text><line class="tick" x1="770.0" x2="770.0" y1="14" y2="306"/><text x="770.0" y="10" text-anchor="middle">1.0</text><line class="zero" x1="461.7" x2="461.7" y1="14" y2="306"/><rect class="band" x="713.5" y="14" width="43.6" height="292"/><line class="zero" x1="741.8" x2="741.8" y1="14" y2="306" stroke-dasharray="2 3"/><text class="ink" x="741.8" y="320" text-anchor="middle">HUMAN CEILING .91 [.82, .96]</text><text class="lab" x="390" y="38.0" text-anchor="end">2025–2025 pipeline · mean of 12 runs · not re-verified</text><circle class="dot s" cx="589.1" cy="35.0" r="4.5"><title>2025–2025 pipeline · mean of 12 runs · not re-verified rho 0.413</title></circle><text class="" x="597.1" y="38.0">.41 · no interval: single historic mean</text><text class="lab" x="390" y="64.0" text-anchor="end">2026-07 platform · databricks-claude-sonnet-4</text><line class="bar h" x1="619.9" x2="722.4" y1="61.0" y2="61.0"/><circle class="dot" cx="683.1" cy="61.0" r="4.5"><title>2026-07 platform · databricks-claude-sonnet-4 rho 0.718</title></circle><text class="" x="730.4" y="64.0">.72 [.51, .85]</text><text class="lab" x="390" y="90.0" text-anchor="end">2026-09 platform · served by databricks-claude-sonnet-4</text><line class="bar h" x1="562.2" x2="706.8" y1="87.0" y2="87.0"/><circle class="dot s" cx="650.3" cy="87.0" r="4.5"><title>2026-09 platform · served by databricks-claude-sonnet-4 rho 0.612</title></circle><text class="" x="714.8" y="90.0">.61 [.33, .79]</text><text class="lab" x="390" y="116.0" text-anchor="end">2026-09 direct · zai.glm-5 · seed 401</text><line class="bar h" x1="673.5" x2="745.3" y1="113.0" y2="113.0"/><circle class="dot s" cx="720.1" cy="113.0" r="4.5"><title>2026-09 direct · zai.glm-5 · seed 401 rho 0.838</title></circle><text class="" x="753.3" y="116.0">.84 [.69, .92]</text><text class="lab" x="390" y="142.0" text-anchor="end">2026-09 direct · claude-sonnet-5 · seed 401</text><line class="bar h" x1="644.6" x2="736.5" y1="139.0" y2="139.0"/><circle class="dot s" cx="703.4" cy="139.0" r="4.5"><title>2026-09 direct · claude-sonnet-5 · seed 401 rho 0.784</title></circle><text class="" x="744.5" y="142.0">.78 [.59, .89]</text><text class="lab" x="390" y="168.0" text-anchor="end">2026-09 direct · zai.glm-5 · seed 401</text><line class="bar h" x1="648.0" x2="737.6" y1="165.0" y2="165.0"/><circle class="dot s" cx="705.4" cy="165.0" r="4.5"><title>2026-09 direct · zai.glm-5 · seed 401 rho 0.791</title></circle><text class="" x="745.6" y="168.0">.79 [.60, .89]</text><text class="lab" x="390" y="194.0" text-anchor="end">2026-09 direct · zai.glm-5 · seed 402</text><line class="bar h" x1="686.3" x2="749.0" y1="191.0" y2="191.0"/><circle class="dot s" cx="727.3" cy="191.0" r="4.5"><title>2026-09 direct · zai.glm-5 · seed 402 rho 0.861</title></circle><text class="" x="757.0" y="194.0">.86 [.73, .93]</text><text class="lab" x="390" y="220.0" text-anchor="end">2026-09 direct · claude-sonnet-5 · seed 402</text><line class="bar h" x1="680.4" x2="747.3" y1="217.0" y2="217.0"/><circle class="dot s" cx="724.0" cy="217.0" r="4.5"><title>2026-09 direct · claude-sonnet-5 · seed 402 rho 0.851</title></circle><text class="" x="755.3" y="220.0">.85 [.71, .93]</text><text class="lab" x="390" y="246.0" text-anchor="end">2026-09 direct · zai.glm-5 · seed 402</text><line class="bar h" x1="693.4" x2="751.0" y1="243.0" y2="243.0"/><circle class="dot s" cx="731.2" cy="243.0" r="4.5"><title>2026-09 direct · zai.glm-5 · seed 402 rho 0.874</title></circle><text class="" x="759.0" y="246.0">.87 [.75, .94]</text><text class="lab" x="390" y="272.0" text-anchor="end">2026-09 direct · pooled panel of 2 · seed 401</text><line class="bar h" x1="648.1" x2="737.6" y1="269.0" y2="269.0"/><circle class="dot s" cx="705.5" cy="269.0" r="4.5"><title>2026-09 direct · pooled panel of 2 · seed 401 rho 0.791</title></circle><text class="" x="745.6" y="272.0">.79 [.60, .90]</text><text class="lab" x="390" y="298.0" text-anchor="end">2026-09 direct · pooled panel of 2 · seed 402</text><line class="bar h" x1="684.8" x2="748.6" y1="295.0" y2="295.0"/><circle class="dot s" cx="726.4" cy="295.0" r="4.5"><title>2026-09 direct · pooled panel of 2 · seed 402 rho 0.859</title></circle><text class="" x="756.6" y="298.0">.86 [.72, .93]</text></svg>