<svg xmlns="http://www.w3.org/2000/svg" viewBox="0 0 560 560" width="100%" role="img" aria-label="Jankowski2021: human AMCE against synthetic AMCE"><style>text{font-family:var(--hb-mono,'IBM Plex Mono',ui-monospace,Menlo,monospace);font-size:10px;letter-spacing:.04em;fill:var(--hb-grey,#6b6862)}.ink{fill:var(--hb-color,#141413)}.tick{stroke:var(--hb-hair,#e6e3dc)}.zero{stroke:var(--hb-grey3,#b8b5ad)}.bar{stroke:var(--hb-grey3,#b8b5ad);stroke-width:1}.bar.h{stroke:var(--hb-color,#141413);stroke-width:1.2}.dot{fill:var(--hb-color,#141413)}.dot.s{fill:var(--hb-bg,#fcfcfb);stroke:var(--hb-color,#141413);stroke-width:1.5}.dot.fail{fill:var(--hb-red,#c8102e)}.gap{stroke:var(--hb-red,#c8102e);stroke-width:2}.ident{stroke:var(--hb-grey3,#b8b5ad);stroke-dasharray:3 3}.fit{stroke:var(--hb-color,#141413);stroke-width:1}.band{fill:var(--hb-band,#f0eee8)}.blob{fill:var(--hb-heat,#2a78d6);fill-opacity:.16}.blob.fail{fill:var(--hb-red,#c8102e);fill-opacity:.18}.red{fill:var(--hb-red,#c8102e)}.lab{font-family:var(--hb-body,'Inter Tight',Inter,Arial,sans-serif);font-size:11px;letter-spacing:-0.01em;fill:var(--hb-color,#141413)}.cap{fill:var(--hb-color,#141413);letter-spacing:.14em;text-transform:uppercase}</style><line class="tick" x1="76.2" x2="76.2" y1="14" y2="516"/><text x="76.2" y="532" text-anchor="middle">-.20</text><line class="tick" x1="172.8" x2="172.8" y1="14" y2="516"/><text x="172.8" y="532" text-anchor="middle">-.10</text><line class="tick" x1="269.5" x2="269.5" y1="14" y2="516"/><text x="269.5" y="532" text-anchor="middle">0.00</text><line class="tick" x1="366.1" x2="366.1" y1="14" y2="516"/><text x="366.1" y="532" text-anchor="middle">.10</text><line class="tick" x1="462.7" x2="462.7" y1="14" y2="516"/><text x="462.7" y="532" text-anchor="middle">.20</text><line class="tick" y1="488.3" y2="488.3" x1="52" x2="546"/><text x="46" y="491.3" text-anchor="end">-.20</text><line class="tick" y1="387.4" y2="387.4" x1="52" x2="546"/><text x="46" y="390.4" text-anchor="end">0.00</text><line class="tick" y1="286.4" y2="286.4" x1="52" x2="546"/><text x="46" y="289.4" text-anchor="end">.20</text><line class="tick" y1="185.5" y2="185.5" x1="52" x2="546"/><text x="46" y="188.5" text-anchor="end">.40</text><line class="tick" y1="84.6" y2="84.6" x1="52" x2="546"/><text x="46" y="87.6" text-anchor="end">.60</text><line class="zero" x1="269.5" x2="269.5" y1="14" y2="516"/><line class="zero" y1="387.4" y2="387.4" x1="52" x2="546"/><line class="ident" x1="52.0" y1="500.9" x2="546.0" y2="242.9"/><line class="fit" x1="119.7" y1="465.9" x2="484.0" y2="251.6"/><ellipse class="blob fail" cx="343.9" cy="256.2" rx="28.3" ry="24.2"/><ellipse class="blob fail" cx="417.3" cy="195.3" rx="28.3" ry="23.4"/><ellipse class="blob fail" cx="426.0" cy="118.2" rx="28.3" ry="21.4"/><ellipse class="blob fail" cx="452.1" cy="74.6" rx="28.3" ry="21.6"/><ellipse class="blob" cx="317.8" cy="344.9" rx="21.8" ry="20.2"/><ellipse class="blob" cx="333.2" cy="347.8" rx="21.8" ry="20.3"/><ellipse class="blob" cx="402.8" cy="387.4" rx="24.0" ry="7.0"/><ellipse class="blob fail" cx="402.8" cy="352.0" rx="24.0" ry="22.2"/><ellipse class="blob fail" cx="484.0" cy="305.7" rx="24.0" ry="21.0"/><ellipse class="blob fail" cx="269.5" cy="417.3" rx="13.1" ry="24.7"/><ellipse class="blob" cx="309.1" cy="387.4" rx="24.0" ry="7.0"/><ellipse class="blob fail" cx="427.0" cy="356.9" rx="24.0" ry="21.3"/><ellipse class="blob fail" cx="473.4" cy="361.9" rx="24.0" ry="21.9"/><ellipse class="blob" cx="292.7" cy="387.4" rx="28.3" ry="7.0"/><ellipse class="blob fail" cx="339.0" cy="390.3" rx="28.3" ry="27.6"/><ellipse class="blob" cx="331.3" cy="374.3" rx="28.3" ry="27.6"/><ellipse class="blob" cx="225.0" cy="390.4" rx="28.3" ry="26.8"/><ellipse class="blob" cx="321.7" cy="349.2" rx="17.4" ry="15.7"/><ellipse class="blob fail" cx="313.0" cy="317.1" rx="28.3" ry="15.7"/><ellipse class="blob" cx="283.0" cy="405.6" rx="28.3" ry="26.4"/><ellipse class="blob fail" cx="284.9" cy="421.7" rx="28.3" ry="28.0"/><ellipse class="blob" cx="229.8" cy="417.2" rx="28.3" ry="28.5"/><ellipse class="blob" cx="192.2" cy="451.1" rx="28.3" ry="26.5"/><ellipse class="blob" cx="187.3" cy="419.2" rx="30.5" ry="22.9"/><ellipse class="blob fail" cx="157.4" cy="398.7" rx="30.5" ry="22.7"/><ellipse class="blob fail" cx="119.7" cy="413.3" rx="30.5" ry="23.1"/><circle class="dot fail" cx="343.9" cy="256.2" r="2.6"><title>Final grade in job qualification: Satisfactory (2.6) · human 0.077 ±0.025 · synthetic 0.260 ±0.042</title></circle><circle class="dot fail" cx="417.3" cy="195.3" r="2.6"><title>Final grade in job qualification: Good (2.2) · human 0.153 ±0.025 · synthetic 0.381 ±0.040</title></circle><circle class="dot fail" cx="426.0" cy="118.2" r="2.6"><title>Final grade in job qualification: Very good (1.9) · human 0.162 ±0.025 · synthetic 0.533 ±0.037</title></circle><circle class="dot fail" cx="452.1" cy="74.6" r="2.6"><title>Final grade in job qualification: Excellent (1.3) · human 0.189 ±0.025 · synthetic 0.620 ±0.037</title></circle><circle class="dot" cx="317.8" cy="344.9" r="2.6"><title>Education level: Vocational qualification · human 0.050 ±0.020 · synthetic 0.084 ±0.035</title></circle><circle class="dot" cx="333.2" cy="347.8" r="2.6"><title>Education level: University entrance level · human 0.066 ±0.020 · synthetic 0.078 ±0.035</title></circle><circle class="dot" cx="402.8" cy="387.4" r="2.6"><title>Relevant working experience: Private sector · human 0.138 ±0.022 · synthetic 0.000 ±—</title></circle><circle class="dot fail" cx="402.8" cy="352.0" r="2.6"><title>Relevant working experience: Nonprofit sector · human 0.138 ±0.022 · synthetic 0.070 ±0.038</title></circle><circle class="dot fail" cx="484.0" cy="305.7" r="2.6"><title>Relevant working experience: Public sector · human 0.222 ±0.022 · synthetic 0.162 ±0.036</title></circle><circle class="dot fail" cx="269.5" cy="417.3" r="2.6"><title>Physical disability: None · human 0.000 ±0.012 · synthetic -0.059 ±0.043</title></circle><circle class="dot" cx="309.1" cy="387.4" r="2.6"><title>English language skills: Low · human 0.041 ±0.022 · synthetic 0.000 ±—</title></circle><circle class="dot fail" cx="427.0" cy="356.9" r="2.6"><title>English language skills: Good · human 0.163 ±0.022 · synthetic 0.060 ±0.037</title></circle><circle class="dot fail" cx="473.4" cy="361.9" r="2.6"><title>English language skills: Very good · human 0.211 ±0.022 · synthetic 0.050 ±0.038</title></circle><circle class="dot" cx="292.7" cy="387.4" r="2.6"><title>Social engagement: Sports club · human 0.024 ±0.025 · synthetic 0.000 ±—</title></circle><circle class="dot fail" cx="339.0" cy="390.3" r="2.6"><title>Social engagement: Animal and environmental protection · human 0.072 ±0.025 · synthetic -0.006 ±0.048</title></circle><circle class="dot" cx="331.3" cy="374.3" r="2.6"><title>Social engagement: Local politics · human 0.064 ±0.025 · synthetic 0.026 ±0.048</title></circle><circle class="dot" cx="225.0" cy="390.4" r="2.6"><title>Social engagement: Religious community · human -0.046 ±0.025 · synthetic -0.006 ±0.046</title></circle><circle class="dot" cx="321.7" cy="349.2" r="2.6"><title>Gender: Female · human 0.054 ±0.016 · synthetic 0.076 ±0.027</title></circle><circle class="dot fail" cx="313.0" cy="317.1" r="2.6"><title>Physical disability: Yes · human 0.045 ±0.025 · synthetic 0.139 ±0.027</title></circle><circle class="dot" cx="283.0" cy="405.6" r="2.6"><title>Age: 33 · human 0.014 ±0.025 · synthetic -0.036 ±0.045</title></circle><circle class="dot fail" cx="284.9" cy="421.7" r="2.6"><title>Age: 39 · human 0.016 ±0.025 · synthetic -0.068 ±0.048</title></circle><circle class="dot" cx="229.8" cy="417.2" r="2.6"><title>Age: 43 · human -0.041 ±0.025 · synthetic -0.059 ±0.049</title></circle><circle class="dot" cx="192.2" cy="451.1" r="2.6"><title>Age: 51 · human -0.080 ±0.025 · synthetic -0.126 ±0.046</title></circle><circle class="dot" cx="187.3" cy="419.2" r="2.6"><title>(Family) origin: France · human -0.085 ±0.027 · synthetic -0.063 ±0.039</title></circle><circle class="dot fail" cx="157.4" cy="398.7" r="2.6"><title>(Family) origin: Poland · human -0.116 ±0.027 · synthetic -0.023 ±0.039</title></circle><circle class="dot fail" cx="119.7" cy="413.3" r="2.6"><title>(Family) origin: Turkey · human -0.155 ±0.027 · synthetic -0.052 ±0.040</title></circle><text x="299.0" y="552" text-anchor="middle">HUMAN AMCE · PAPER 95% CI →</text><text transform="translate(12 265.0) rotate(-90)" text-anchor="middle">SYNTHETIC AMCE · 95% CI →</text></svg>