<svg xmlns="http://www.w3.org/2000/svg" viewBox="0 0 980 180" width="100%" role="img" aria-label="Klein2020: rank correlation by era"><style>text{font-family:var(--hb-mono,'IBM Plex Mono',ui-monospace,Menlo,monospace);font-size:10px;letter-spacing:.04em;fill:var(--hb-grey,#6b6862)}.ink{fill:var(--hb-color,#141413)}.tick{stroke:var(--hb-hair,#e6e3dc)}.zero{stroke:var(--hb-grey3,#b8b5ad)}.bar{stroke:var(--hb-grey3,#b8b5ad);stroke-width:1}.bar.h{stroke:var(--hb-color,#141413);stroke-width:1.2}.dot{fill:var(--hb-color,#141413)}.dot.s{fill:var(--hb-bg,#fcfcfb);stroke:var(--hb-color,#141413);stroke-width:1.5}.dot.fail{fill:var(--hb-red,#c8102e)}.gap{stroke:var(--hb-red,#c8102e);stroke-width:2}.ident{stroke:var(--hb-grey3,#b8b5ad);stroke-dasharray:3 3}.fit{stroke:var(--hb-color,#141413);stroke-width:1}.band{fill:var(--hb-band,#f0eee8)}.blob{fill:var(--hb-heat,#2a78d6);fill-opacity:.16}.blob.fail{fill:var(--hb-red,#c8102e);fill-opacity:.18}.red{fill:var(--hb-red,#c8102e)}.lab{font-family:var(--hb-body,'Inter Tight',Inter,Arial,sans-serif);font-size:11px;letter-spacing:-0.01em;fill:var(--hb-color,#141413)}.cap{fill:var(--hb-color,#141413);letter-spacing:.14em;text-transform:uppercase}</style><line class="tick" x1="400.0" x2="400.0" y1="14" y2="150"/><text x="400.0" y="10" text-anchor="middle">-.2</text><line class="tick" x1="461.7" x2="461.7" y1="14" y2="150"/><text x="461.7" y="10" text-anchor="middle">0.0</text><line class="tick" x1="523.3" x2="523.3" y1="14" y2="150"/><text x="523.3" y="10" text-anchor="middle">.2</text><line class="tick" x1="585.0" x2="585.0" y1="14" y2="150"/><text x="585.0" y="10" text-anchor="middle">.4</text><line class="tick" x1="646.7" x2="646.7" y1="14" y2="150"/><text x="646.7" y="10" text-anchor="middle">.6</text><line class="tick" x1="708.3" x2="708.3" y1="14" y2="150"/><text x="708.3" y="10" text-anchor="middle">.8</text><line class="tick" x1="770.0" x2="770.0" y1="14" y2="150"/><text x="770.0" y="10" text-anchor="middle">1.0</text><line class="zero" x1="461.7" x2="461.7" y1="14" y2="150"/><text class="lab" x="390" y="38.0" text-anchor="end">2026-09 platform · served by databricks-claude-sonnet-4</text><line class="bar h" x1="499.6" x2="733.0" y1="35.0" y2="35.0"/><circle class="dot s" cx="657.5" cy="35.0" r="4.5"><title>2026-09 platform · served by databricks-claude-sonnet-4 rho 0.635</title></circle><text class="" x="741.0" y="38.0">.64 [.12, .88]</text><text class="lab" x="390" y="64.0" text-anchor="end">2026-09 direct · zai.glm-5 · seed 401</text><line class="bar h" x1="704.3" x2="764.1" y1="61.0" y2="61.0"/><circle class="dot s" cx="749.7" cy="61.0" r="4.5"><title>2026-09 direct · zai.glm-5 · seed 401 rho 0.934</title></circle><text class="" x="772.1" y="64.0">.93 [.79, .98]</text><text class="lab" x="390" y="90.0" text-anchor="end">2026-09 direct · zai.glm-5 · seed 401</text><line class="bar h" x1="696.2" x2="763.2" y1="87.0" y2="87.0"/><circle class="dot s" cx="747.0" cy="87.0" r="4.5"><title>2026-09 direct · zai.glm-5 · seed 401 rho 0.925</title></circle><text class="" x="771.2" y="90.0">.93 [.76, .98]</text><text class="lab" x="390" y="116.0" text-anchor="end">2026-09 direct · zai.glm-5 · seed 402</text><line class="bar h" x1="634.1" x2="756.1" y1="113.0" y2="113.0"/><circle class="dot s" cx="723.9" cy="113.0" r="4.5"><title>2026-09 direct · zai.glm-5 · seed 402 rho 0.851</title></circle><text class="" x="764.1" y="116.0">.85 [.56, .95]</text><text class="lab" x="390" y="142.0" text-anchor="end">2026-09 direct · zai.glm-5 · seed 402</text><line class="bar h" x1="712.4" x2="764.9" y1="139.0" y2="139.0"/><circle class="dot s" cx="752.4" cy="139.0" r="4.5"><title>2026-09 direct · zai.glm-5 · seed 402 rho 0.943</title></circle><text class="" x="772.9" y="142.0">.94 [.81, .98]</text></svg>