<svg xmlns="http://www.w3.org/2000/svg" viewBox="0 0 240 220" width="100%" role="img" aria-label="Donnaloja2022: human against synthetic AMCE"><style>text{font-family:var(--hb-mono,'IBM Plex Mono',ui-monospace,Menlo,monospace);font-size:10px;letter-spacing:.04em;fill:var(--hb-grey,#6b6862)}.ink{fill:var(--hb-color,#141413)}.tick{stroke:var(--hb-hair,#e6e3dc)}.zero{stroke:var(--hb-grey3,#b8b5ad)}.bar{stroke:var(--hb-grey3,#b8b5ad);stroke-width:1}.bar.h{stroke:var(--hb-color,#141413);stroke-width:1.2}.dot{fill:var(--hb-color,#141413)}.dot.s{fill:var(--hb-bg,#fcfcfb);stroke:var(--hb-color,#141413);stroke-width:1.5}.dot.fail{fill:var(--hb-red,#c8102e)}.gap{stroke:var(--hb-red,#c8102e);stroke-width:2}.ident{stroke:var(--hb-grey3,#b8b5ad);stroke-dasharray:3 3}.fit{stroke:var(--hb-color,#141413);stroke-width:1}.band{fill:var(--hb-band,#f0eee8)}.blob{fill:var(--hb-heat,#2a78d6);fill-opacity:.16}.blob.fail{fill:var(--hb-red,#c8102e);fill-opacity:.18}.red{fill:var(--hb-red,#c8102e)}.lab{font-family:var(--hb-body,'Inter Tight',Inter,Arial,sans-serif);font-size:11px;letter-spacing:-0.01em;fill:var(--hb-color,#141413)}.cap{fill:var(--hb-color,#141413);letter-spacing:.14em;text-transform:uppercase}.cell{fill:var(--hb-heat,#2a78d6)}.cell.none{fill:var(--hb-color,#141413);fill-opacity:.04}.eqbar{stroke:var(--hb-color,#141413);stroke-width:2}.eqbar.loose{stroke:var(--hb-grey3,#b8b5ad);stroke-width:1.2}.eqbar.fail{stroke:var(--hb-red,#c8102e);stroke-width:1.2}.curve{fill:none;stroke:var(--hb-color,#141413);stroke-width:1.6}.curve.syn{stroke:var(--hb-heat,#2a78d6);stroke-dasharray:4 3}.hist{fill:var(--hb-color,#141413);fill-opacity:.55}.hist.syn{fill:var(--hb-heat,#2a78d6);fill-opacity:.5}.dumb{stroke:var(--hb-grey3,#b8b5ad);stroke-width:1}g.hov{cursor:default}g.hov:hover .dot,g.hov:hover circle{r:5}g.hov:hover rect{fill-opacity:1}g.hov:hover line{stroke-width:3}</style><line class="tick" x1="54.4" x2="54.4" y1="14" y2="176"/><text x="54.4" y="192" text-anchor="middle">-.40</text><line class="tick" x1="84.6" x2="84.6" y1="14" y2="176"/><text x="84.6" y="192" text-anchor="middle">-.30</text><line class="tick" x1="114.8" x2="114.8" y1="14" y2="176"/><text x="114.8" y="192" text-anchor="middle">-.20</text><line class="tick" x1="145.0" x2="145.0" y1="14" y2="176"/><text x="145.0" y="192" text-anchor="middle">-.10</text><line class="tick" x1="175.2" x2="175.2" y1="14" y2="176"/><text x="175.2" y="192" text-anchor="middle">-0.00</text><line class="tick" x1="205.5" x2="205.5" y1="14" y2="176"/><text x="205.5" y="192" text-anchor="middle">.10</text><line class="tick" y1="171.0" y2="171.0" x1="52" x2="226"/><text x="46" y="174.0" text-anchor="end">-.40</text><line class="tick" y1="137.1" y2="137.1" x1="52" x2="226"/><text x="46" y="140.1" text-anchor="end">-.20</text><line class="tick" y1="103.1" y2="103.1" x1="52" x2="226"/><text x="46" y="106.1" text-anchor="end">0.00</text><line class="tick" y1="69.1" y2="69.1" x1="52" x2="226"/><text x="46" y="72.1" text-anchor="end">.20</text><line class="tick" y1="35.2" y2="35.2" x1="52" x2="226"/><text x="46" y="38.2" text-anchor="end">.40</text><line class="zero" x1="175.2" x2="175.2" y1="14" y2="176"/><line class="zero" y1="103.1" y2="103.1" x1="52" x2="226"/><line class="ident" x1="52.0" y1="172.4" x2="226.0" y2="74.6"/><line class="fit" x1="66.5" y1="171.2" x2="211.5" y2="64.2"/><ellipse class="blob" cx="202.4" cy="61.2" rx="8.1" ry="8.4"/><ellipse class="blob" cx="211.5" cy="34.6" rx="8.1" ry="8.2"/><ellipse class="blob" cx="199.4" cy="89.3" rx="8.1" ry="14.0"/><ellipse class="blob" cx="196.4" cy="93.3" rx="8.1" ry="13.0"/><ellipse class="blob" cx="190.4" cy="60.8" rx="8.1" ry="12.7"/><ellipse class="blob" cx="160.1" cy="113.5" rx="8.1" ry="12.4"/><ellipse class="blob" cx="154.1" cy="124.4" rx="8.1" ry="12.8"/><ellipse class="blob" cx="148.1" cy="121.8" rx="8.1" ry="12.4"/><ellipse class="blob" cx="66.5" cy="152.1" rx="8.1" ry="11.9"/><ellipse class="blob" cx="123.9" cy="138.0" rx="8.1" ry="11.8"/><ellipse class="blob" cx="205.5" cy="72.2" rx="8.1" ry="8.1"/><ellipse class="blob" cx="193.4" cy="90.5" rx="8.1" ry="8.1"/><ellipse class="blob" cx="208.5" cy="50.0" rx="8.1" ry="8.1"/><ellipse class="blob" cx="126.9" cy="120.4" rx="8.1" ry="8.1"/><circle class="dot" cx="202.4" cy="61.2" r="3"><title>Length of residence: 10 years · human 0.090 ±— · synthetic 0.247 ±0.043</title></circle><circle class="dot" cx="211.5" cy="34.6" r="3"><title>Length of residence: 20 years · human 0.120 ±— · synthetic 0.403 ±0.042</title></circle><circle class="dot" cx="199.4" cy="89.3" r="3"><title>Country of origin: Ireland · human 0.080 ±— · synthetic 0.081 ±0.072</title></circle><circle class="dot" cx="196.4" cy="93.3" r="3"><title>Country of origin: Australia · human 0.070 ±— · synthetic 0.058 ±0.067</title></circle><circle class="dot" cx="190.4" cy="60.8" r="3"><title>Occupation: Doctor · human 0.050 ±— · synthetic 0.249 ±0.065</title></circle><circle class="dot" cx="160.1" cy="113.5" r="3"><title>Occupation: Admin worker · human -0.050 ±— · synthetic -0.062 ±0.063</title></circle><circle class="dot" cx="154.1" cy="124.4" r="3"><title>Occupation: Farmer · human -0.070 ±— · synthetic -0.126 ±0.066</title></circle><circle class="dot" cx="148.1" cy="121.8" r="3"><title>Occupation: Cleaner · human -0.090 ±— · synthetic -0.110 ±0.064</title></circle><circle class="dot" cx="66.5" cy="152.1" r="3"><title>Occupation: Unemployed · human -0.360 ±— · synthetic -0.289 ±0.061</title></circle><circle class="dot" cx="123.9" cy="138.0" r="3"><title>Occupation: Stay at home parent · human -0.170 ±— · synthetic -0.206 ±0.060</title></circle><circle class="dot" cx="205.5" cy="72.2" r="3"><title>Ancestry: British parent · human 0.100 ±— · synthetic 0.182 ±—</title></circle><circle class="dot" cx="193.4" cy="90.5" r="3"><title>Ancestry: British grandparent · human 0.060 ±— · synthetic 0.074 ±0.039</title></circle><circle class="dot" cx="208.5" cy="50.0" r="3"><title>English proficiency: Excellent · human 0.110 ±— · synthetic 0.313 ±0.033</title></circle><circle class="dot" cx="126.9" cy="120.4" r="3"><title>Religion: Muslim · human -0.160 ±— · synthetic -0.102 ±0.037</title></circle><text x="139.0" y="212" text-anchor="middle">HUMAN AMCE · PAPER 95% CI →</text><text transform="translate(12 95.0) rotate(-90)" text-anchor="middle">SYNTHETIC AMCE · 95% CI →</text></svg>