<svg xmlns="http://www.w3.org/2000/svg" viewBox="0 0 240 220" width="100%" role="img" aria-label="Blasch2013: human against synthetic AMCE"><style>text{font-family:var(--hb-mono,'IBM Plex Mono',ui-monospace,Menlo,monospace);font-size:10px;letter-spacing:.04em;fill:var(--hb-grey,#6b6862)}.ink{fill:var(--hb-color,#141413)}.tick{stroke:var(--hb-hair,#e6e3dc)}.zero{stroke:var(--hb-grey3,#b8b5ad)}.bar{stroke:var(--hb-grey3,#b8b5ad);stroke-width:1}.bar.h{stroke:var(--hb-color,#141413);stroke-width:1.2}.dot{fill:var(--hb-color,#141413)}.dot.s{fill:var(--hb-bg,#fcfcfb);stroke:var(--hb-color,#141413);stroke-width:1.5}.dot.fail{fill:var(--hb-red,#c8102e)}.gap{stroke:var(--hb-red,#c8102e);stroke-width:2}.ident{stroke:var(--hb-grey3,#b8b5ad);stroke-dasharray:3 3}.fit{stroke:var(--hb-color,#141413);stroke-width:1}.band{fill:var(--hb-band,#f0eee8)}.blob{fill:var(--hb-heat,#2a78d6);fill-opacity:.16}.blob.fail{fill:var(--hb-red,#c8102e);fill-opacity:.18}.red{fill:var(--hb-red,#c8102e)}.lab{font-family:var(--hb-body,'Inter Tight',Inter,Arial,sans-serif);font-size:11px;letter-spacing:-0.01em;fill:var(--hb-color,#141413)}.cap{fill:var(--hb-color,#141413);letter-spacing:.14em;text-transform:uppercase}</style><line class="tick" x1="145.4" x2="145.4" y1="14" y2="176"/><text x="145.4" y="192" text-anchor="middle">0.00</text><line class="tick" y1="173.6" y2="173.6" x1="52" x2="226"/><text x="46" y="176.6" text-anchor="end">-.15</text><line class="tick" y1="141.1" y2="141.1" x1="52" x2="226"/><text x="46" y="144.1" text-anchor="end">-.10</text><line class="tick" y1="108.5" y2="108.5" x1="52" x2="226"/><text x="46" y="111.5" text-anchor="end">-.05</text><line class="tick" y1="76.0" y2="76.0" x1="52" x2="226"/><text x="46" y="79.0" text-anchor="end">-0.00</text><line class="tick" y1="43.4" y2="43.4" x1="52" x2="226"/><text x="46" y="46.4" text-anchor="end">.05</text><line class="zero" x1="145.4" x2="145.4" y1="14" y2="176"/><line class="zero" y1="76.0" y2="76.0" x1="52" x2="226"/><line class="ident" x1="52.0" y1="80.1" x2="226.0" y2="72.4"/><line class="fit" x1="76.1" y1="93.3" x2="203.1" y2="81.9"/><ellipse class="blob" cx="187.3" cy="76.0" rx="9.7" ry="8.1"/><ellipse class="blob fail" cx="181.9" cy="94.2" rx="9.3" ry="11.7"/><ellipse class="blob" cx="145.4" cy="101.1" rx="8.1" ry="12.1"/><ellipse class="blob fail" cx="76.1" cy="99.0" rx="11.0" ry="12.5"/><ellipse class="blob" cx="155.9" cy="76.0" rx="8.1" ry="8.1"/><ellipse class="blob" cx="145.4" cy="82.4" rx="8.1" ry="8.1"/><ellipse class="blob" cx="96.2" cy="76.0" rx="8.1" ry="8.1"/><ellipse class="blob" cx="145.4" cy="35.0" rx="8.1" ry="8.6"/><ellipse class="blob" cx="203.1" cy="76.0" rx="9.7" ry="8.1"/><ellipse class="blob" cx="145.4" cy="152.4" rx="8.1" ry="11.6"/><circle class="dot" cx="187.3" cy="76.0" r="3"><title>Type of offset project: Renewable energy · human 0.003 ±0.001 · synthetic 0.000 ±—</title></circle><circle class="dot fail" cx="181.9" cy="94.2" r="3"><title>Type of offset project: re-/afforestation · human 0.002 ±0.001 · synthetic -0.028 ±0.016</title></circle><circle class="dot" cx="145.4" cy="101.1" r="3"><title>Type of offset project: energy efficiency · human 0.000 ±— · synthetic -0.039 ±0.016</title></circle><circle class="dot fail" cx="76.1" cy="99.0" r="3"><title>Type of offset project: methane reduction · human -0.005 ±0.001 · synthetic -0.035 ±0.017</title></circle><circle class="dot" cx="155.9" cy="76.0" r="3"><title>Project host country: Developing country · human 0.001 ±0.000 · synthetic 0.000 ±—</title></circle><circle class="dot" cx="145.4" cy="82.4" r="3"><title>Project host country: newly industrialising country · human 0.000 ±— · synthetic -0.010 ±0.010</title></circle><circle class="dot" cx="96.2" cy="76.0" r="3"><title>Type of provider: For-profit · human -0.003 ±0.000 · synthetic 0.000 ±—</title></circle><circle class="dot" cx="145.4" cy="35.0" r="3"><title>Type of provider: Non-profit · human 0.000 ±— · synthetic 0.063 ±0.012</title></circle><circle class="dot" cx="203.1" cy="76.0" r="3"><title>Certification: By Swiss government · human 0.004 ±0.001 · synthetic 0.000 ±—</title></circle><circle class="dot" cx="145.4" cy="152.4" r="3"><title>Certification: no certification · human 0.000 ±— · synthetic -0.117 ±0.016</title></circle><text x="139.0" y="212" text-anchor="middle">HUMAN AMCE · PAPER 95% CI →</text><text transform="translate(12 95.0) rotate(-90)" text-anchor="middle">SYNTHETIC AMCE · 95% CI →</text></svg>