<svg xmlns="http://www.w3.org/2000/svg" viewBox="0 0 880 550" width="100%" role="img" aria-label="Kreps2020: every level, human beside synthetic"><style>text{font-family:var(--hb-mono,'IBM Plex Mono',ui-monospace,Menlo,monospace);font-size:10px;letter-spacing:.04em;fill:var(--hb-grey,#6b6862)}.ink{fill:var(--hb-color,#141413)}.tick{stroke:var(--hb-hair,#e6e3dc)}.zero{stroke:var(--hb-grey3,#b8b5ad)}.bar{stroke:var(--hb-grey3,#b8b5ad);stroke-width:1}.bar.h{stroke:var(--hb-color,#141413);stroke-width:1.2}.dot{fill:var(--hb-color,#141413)}.dot.s{fill:var(--hb-bg,#fcfcfb);stroke:var(--hb-color,#141413);stroke-width:1.5}.dot.fail{fill:var(--hb-red,#c8102e)}.gap{stroke:var(--hb-red,#c8102e);stroke-width:2}.ident{stroke:var(--hb-grey3,#b8b5ad);stroke-dasharray:3 3}.fit{stroke:var(--hb-color,#141413);stroke-width:1}.band{fill:var(--hb-band,#f0eee8)}.blob{fill:var(--hb-heat,#2a78d6);fill-opacity:.16}.blob.fail{fill:var(--hb-red,#c8102e);fill-opacity:.18}.red{fill:var(--hb-red,#c8102e)}.lab{font-family:var(--hb-body,'Inter Tight',Inter,Arial,sans-serif);font-size:11px;letter-spacing:-0.01em;fill:var(--hb-color,#141413)}.cap{fill:var(--hb-color,#141413);letter-spacing:.14em;text-transform:uppercase}</style><line class="tick" x1="317.2" x2="317.2" y1="22" y2="526"/><text x="317.2" y="18" text-anchor="middle">-.20</text><line class="tick" x1="394.8" x2="394.8" y1="22" y2="526"/><text x="394.8" y="18" text-anchor="middle">-.10</text><line class="tick" x1="472.4" x2="472.4" y1="22" y2="526"/><text x="472.4" y="18" text-anchor="middle">0.00</text><line class="tick" x1="549.9" x2="549.9" y1="22" y2="526"/><text x="549.9" y="18" text-anchor="middle">.10</text><line class="tick" x1="627.5" x2="627.5" y1="22" y2="526"/><text x="627.5" y="18" text-anchor="middle">.20</text><line class="tick" x1="705.0" x2="705.0" y1="22" y2="526"/><text x="705.0" y="18" text-anchor="middle">.30</text><line class="tick" x1="782.6" x2="782.6" y1="22" y2="526"/><text x="782.6" y="18" text-anchor="middle">.40</text><line class="zero" x1="472.4" x2="472.4" y1="22" y2="526"/><rect class="band" x="0" y="28" width="880" height="24"/><text class="cap" x="8" y="44">Vaccine efficacy</text><text class="lab" x="290" y="64.0" text-anchor="end">The vaccine efficacy is 50%</text><circle class="dot" cx="472.4" cy="58.0" r="3.2"><title>human 0.000</title></circle><circle class="dot s" cx="472.4" cy="65.0" r="3.2"><title>synthetic 0.000</title></circle><text class="lab" x="290" y="82.0" text-anchor="end">The vaccine efficacy is 70%</text><line class="gap" x1="526.6" x2="637.3" y1="79.0" y2="79.0"/><line class="bar h" x1="503.8" x2="549.4" y1="76.0" y2="76.0"/><circle class="dot" cx="526.6" cy="76.0" r="3.2"><title>human 0.070</title></circle><line class="bar" x1="617.2" x2="657.5" y1="83.0" y2="83.0"/><circle class="dot s" cx="637.3" cy="83.0" r="3.2"><title>synthetic 0.213</title></circle><text class="lab" x="290" y="100.0" text-anchor="end">The vaccine efficacy is 90%</text><line class="gap" x1="596.4" x2="796.8" y1="97.0" y2="97.0"/><line class="bar h" x1="573.6" x2="619.2" y1="94.0" y2="94.0"/><circle class="dot" cx="596.4" cy="94.0" r="3.2"><title>human 0.160</title></circle><line class="bar" x1="772.2" x2="821.4" y1="101.0" y2="101.0"/><circle class="dot s" cx="796.8" cy="101.0" r="3.2"><title>synthetic 0.418</title></circle><rect class="band" x="0" y="106" width="880" height="24"/><text class="cap" x="8" y="122">Protection duration</text><text class="lab" x="290" y="142.0" text-anchor="end">The vaccine protection lasts 1 year</text><circle class="dot" cx="472.4" cy="136.0" r="3.2"><title>human 0.000</title></circle><circle class="dot s" cx="472.4" cy="143.0" r="3.2"><title>synthetic 0.000</title></circle><text class="lab" x="290" y="160.0" text-anchor="end">The vaccine protection lasts 5 years</text><line class="bar h" x1="488.3" x2="533.9" y1="154.0" y2="154.0"/><circle class="dot" cx="511.1" cy="154.0" r="3.2"><title>human 0.050</title></circle><line class="bar" x1="513.2" x2="544.5" y1="161.0" y2="161.0"/><circle class="dot s" cx="528.8" cy="161.0" r="3.2"><title>synthetic 0.073</title></circle><rect class="band" x="0" y="166" width="880" height="24"/><text class="cap" x="8" y="182">Major adverse effect rate</text><text class="lab" x="290" y="202.0" text-anchor="end">Major adverse effects occur for 1 in 10000</text><circle class="dot" cx="472.4" cy="196.0" r="3.2"><title>human 0.000</title></circle><circle class="dot s" cx="472.4" cy="203.0" r="3.2"><title>synthetic 0.000</title></circle><text class="lab" x="290" y="220.0" text-anchor="end">Major adverse effects occur for 1 in 1000000</text><line class="gap" x1="526.6" x2="649.7" y1="217.0" y2="217.0"/><line class="bar h" x1="503.8" x2="549.4" y1="214.0" y2="214.0"/><circle class="dot" cx="526.6" cy="214.0" r="3.2"><title>human 0.070</title></circle><line class="bar" x1="627.9" x2="671.6" y1="221.0" y2="221.0"/><circle class="dot s" cx="649.7" cy="221.0" r="3.2"><title>synthetic 0.229</title></circle><rect class="band" x="0" y="226" width="880" height="24"/><text class="cap" x="8" y="242">Minor adverse effect rate</text><text class="lab" x="290" y="262.0" text-anchor="end">Minor adverse effects occur for 1 in 10</text><circle class="dot" cx="472.4" cy="256.0" r="3.2"><title>human 0.000</title></circle><circle class="dot s" cx="472.4" cy="263.0" r="3.2"><title>synthetic 0.000</title></circle><text class="lab" x="290" y="280.0" text-anchor="end">Minor adverse effects occur for 1 in 30</text><line class="bar h" x1="456.5" x2="503.7" y1="274.0" y2="274.0"/><circle class="dot" cx="480.1" cy="274.0" r="3.2"><title>human 0.010</title></circle><line class="bar" x1="461.1" x2="498.6" y1="281.0" y2="281.0"/><circle class="dot s" cx="479.8" cy="281.0" r="3.2"><title>synthetic 0.010</title></circle><rect class="band" x="0" y="286" width="880" height="24"/><text class="cap" x="8" y="302">FDA Approval</text><text class="lab" x="290" y="322.0" text-anchor="end">The vaccine is FDA approved and licensed</text><circle class="dot" cx="472.4" cy="316.0" r="3.2"><title>human 0.000</title></circle><circle class="dot s" cx="472.4" cy="323.0" r="3.2"><title>synthetic 0.000</title></circle><text class="lab" x="290" y="340.0" text-anchor="end">The vaccine has FDA Emergency Use Authoriza…</text><line class="gap" x1="449.1" x2="373.8" y1="337.0" y2="337.0"/><line class="bar h" x1="426.3" x2="471.9" y1="334.0" y2="334.0"/><circle class="dot" cx="449.1" cy="334.0" r="3.2"><title>human -0.030</title></circle><line class="bar" x1="354.1" x2="393.6" y1="341.0" y2="341.0"/><circle class="dot s" cx="373.8" cy="341.0" r="3.2"><title>synthetic -0.127</title></circle><rect class="band" x="0" y="346" width="880" height="24"/><text class="cap" x="8" y="362">Vaccine origin</text><text class="lab" x="290" y="382.0" text-anchor="end">The vaccine origin was the United States of…</text><circle class="dot" cx="472.4" cy="376.0" r="3.2"><title>human 0.000</title></circle><circle class="dot s" cx="472.4" cy="383.0" r="3.2"><title>synthetic 0.000</title></circle><text class="lab" x="290" y="400.0" text-anchor="end">The vaccine origin was the United Kingdom</text><line class="bar h" x1="410.9" x2="471.7" y1="394.0" y2="394.0"/><circle class="dot" cx="441.3" cy="394.0" r="3.2"><title>human -0.040</title></circle><line class="bar" x1="366.8" x2="415.6" y1="401.0" y2="401.0"/><circle class="dot s" cx="391.2" cy="401.0" r="3.2"><title>synthetic -0.105</title></circle><text class="lab" x="290" y="418.0" text-anchor="end">The vaccine origin was China</text><line class="bar h" x1="341.1" x2="401.9" y1="412.0" y2="412.0"/><circle class="dot" cx="371.5" cy="412.0" r="3.2"><title>human -0.130</title></circle><line class="bar" x1="338.6" x2="383.8" y1="419.0" y2="419.0"/><circle class="dot s" cx="361.2" cy="419.0" r="3.2"><title>synthetic -0.143</title></circle><rect class="band" x="0" y="424" width="880" height="24"/><text class="cap" x="8" y="440">Endorsement</text><text class="lab" x="290" y="460.0" text-anchor="end">The vaccine is endorsed by Trump</text><circle class="dot" cx="472.4" cy="454.0" r="3.2"><title>human 0.000</title></circle><circle class="dot s" cx="472.4" cy="461.0" r="3.2"><title>synthetic 0.000</title></circle><text class="lab" x="290" y="478.0" text-anchor="end">The vaccine is endorsed by Biden</text><line class="bar h" x1="455.2" x2="520.5" y1="472.0" y2="472.0"/><circle class="dot" cx="487.9" cy="472.0" r="3.2"><title>human 0.020</title></circle><line class="bar" x1="436.5" x2="497.6" y1="479.0" y2="479.0"/><circle class="dot s" cx="467.0" cy="479.0" r="3.2"><title>synthetic -0.007</title></circle><text class="lab" x="290" y="496.0" text-anchor="end">The vaccine is endorsed by the CDC</text><line class="gap" x1="542.2" x2="610.0" y1="493.0" y2="493.0"/><line class="bar h" x1="511.8" x2="572.6" y1="490.0" y2="490.0"/><circle class="dot" cx="542.2" cy="490.0" r="3.2"><title>human 0.090</title></circle><line class="bar" x1="578.5" x2="641.5" y1="497.0" y2="497.0"/><circle class="dot s" cx="610.0" cy="497.0" r="3.2"><title>synthetic 0.177</title></circle><text class="lab" x="290" y="514.0" text-anchor="end">The vaccine is endorsed by the WHO</text><line class="bar h" x1="488.5" x2="549.3" y1="508.0" y2="508.0"/><circle class="dot" cx="518.9" cy="508.0" r="3.2"><title>human 0.060</title></circle><line class="bar" x1="538.2" x2="604.9" y1="515.0" y2="515.0"/><circle class="dot s" cx="571.6" cy="515.0" r="3.2"><title>synthetic 0.128</title></circle><text x="580.0" y="544" text-anchor="middle">AMCE, RE-REFERENCED TO THE PAPER'S BASE LEVEL →</text></svg>